# xmcd CD database file
#
# Track frame offsets:
#	150
#	34154
#	60833
#	90235
#	119303
#	150578
#	178123
#	202641
#	230820
#	263026
#	294156
#	316654
#
# Disc length: 4609 seconds
#
# Revision: 1
# Processed by: cddbd v1.5.2PL0 Copyright (c) Steve Scherf et al.
# Submitted via: CDex 1.70beta2
#
DISCID=8c11ff0c
DTITLE=Hed Kandi - Hed Kandi Back To Love [CD2)
DYEAR=2007
DGENRE=House
TTITLE0=Fire Island - There But For The Grace Of God
TTITLE1=Indo - R U Sleeping (Todd Edwards Mix)
TTITLE2=Hardrive - Deep Inside
TTITLE3=Franfie Knuckles Presents Satoshi Tomiie - Tears (Full Intenntion Mix)
TTITLE4=George Morel - Let's Groove
TTITLE5=Direckt - Two Fatt Guitars (Babetastic Mix)
TTITLE6=C. J. Bolland - Sugar Is Sweeter (Armand Van Helden's Drum 'n' Bass Mix)
TTITLE7=The Lisa Marie Experiance - Keep On Jumpin' (Lisa Marie Vocal Experiance)
TTITLE8=Judy Cheeks - Reach (Brothers In Rhythm Club Mix)
TTITLE9=Underworld - Born Slippy
TTITLE10=Orbital - Chime
TTITLE11=SSR - To Be House
EXTD=YEAR: 2007
EXTT0=
EXTT1=
EXTT2=
EXTT3=
EXTT4=
EXTT5=
EXTT6=
EXTT7=
EXTT8=
EXTT9=
EXTT10=
EXTT11=
PLAYORDER=
